<?xml version="1.0" encoding="UTF-8"?>
<svg data-bbox="-3 -5.223 72.617 53.047" height="40" viewBox="0 0 30 30" width="40" xmlns="http://www.w3.org/2000/svg" data-type="color">
    <g>
        <defs>
            <clipPath id="befdf9a8-aaea-4590-8f75-d990a4442dbe">
                <path d="M.484 0h29.032v29.031H.484Zm0 0"/>
            </clipPath>
            <clipPath id="9d4af988-1099-4ae5-bdb2-597d9caa2cdb">
                <path d="M3.32 3.688H22v20.484H3.32Zm0 0"/>
            </clipPath>
            <clipPath id="fe438ba9-3ae2-4540-b9a1-7cc5ee3ba313">
                <path d="M20.996 8.684A9.138 9.138 0 0 0 11.52 5.05l-.122-.524.122.524a9.126 9.126 0 0 0-6.887 10.91l-.524.121.524-.121c1.113 4.926 6 8.012 10.914 6.898.293-.07.574.11.644.403a.54.54 0 0 1-.402.648c-5.5 1.235-10.96-2.215-12.207-7.703C2.34 10.703 5.789 5.242 11.289 4c4.145-.941 8.27.8 10.586 4.066a.54.54 0 0 1-.129.746.554.554 0 0 1-.762-.128Zm0 0"/>
            </clipPath>
            <clipPath id="c4285d65-279e-4a04-a81e-5c4ff1622dd2">
                <path d="M1.004 1.492h23.258v24.996H1.004Zm0 0"/>
            </clipPath>
            <clipPath id="57b08884-b860-4699-ab14-9613768092b0">
                <path d="M23.262 8.066a11.371 11.371 0 0 0-12.235-5.199l-.125-.527.125.527c-6.12 1.387-9.96 7.473-8.578 13.59l-.523.121.523-.121c1.387 6.129 7.473 9.961 13.594 8.578a.54.54 0 0 1 .645.414.52.52 0 0 1-.403.637c-6.707 1.516-13.37-2.68-14.887-9.387C-.117 9.996 4.09 3.332 10.793 1.816c5.36-1.214 10.7 1.235 13.387 5.692a.522.522 0 0 1-.18.738.542.542 0 0 1-.738-.18Zm0 0"/>
            </clipPath>
            <clipPath id="01b2d0a9-fde0-4aee-9b54-7c4e77bb002b">
                <path d="M5.86 6.234h13.304v15.391H5.86Zm0 0"/>
            </clipPath>
            <clipPath id="d34ad38a-3a46-4727-a8aa-c58d1d88dc64">
                <path d="M18.246 9.34a6.609 6.609 0 0 0-6.168-1.82l-.113-.528.113.528a6.603 6.603 0 0 0-4.976 7.886l-.524.121.524-.12a6.605 6.605 0 0 0 7.886 4.976c.293-.07.578.11.649.402a.55.55 0 0 1-.414.649c-4.125.93-8.23-1.66-9.172-5.786-.93-4.136 1.656-8.242 5.793-9.171a7.63 7.63 0 0 1 7.172 2.113.544.544 0 0 1-.012.758.526.526 0 0 1-.758 0Zm0 0"/>
            </clipPath>
            <clipPath id="7857e889-4434-4fc1-a90b-66a4df666e66">
                <path d="M10.023 10.059h19.493v10.18H10.023Zm0 0"/>
            </clipPath>
            <clipPath id="af86313d-3adc-44ab-8618-e9f8cd7dca36">
                <path d="M13.828 17.855c1.445 0 2.485-.546 3.152-1.558.165-.254.094-.426-.21-.527l-.122-.04c-.253-.07-.406.06-.585.243-.528.636-1.196.98-2.215.98-1.7 0-2.762-1.05-2.793-2.789h5.847c.293 0 .465-.152.453-.457-.039-2.172-1.425-3.621-3.601-3.621-2.203 0-3.719 1.578-3.719 3.883 0 2.336 1.496 3.886 3.793 3.886Zm2.535-4.55h-5.265c.18-1.489 1.21-2.36 2.68-2.36 1.527 0 2.495.922 2.585 2.36Zm5.785 4.578c1.266 0 2.399-.637 2.852-1.871v1.226c0 .293.164.453.457.453h.121c.293 0 .453-.16.453-.453v-6.554c0-.293-.16-.454-.453-.454h-.121c-.293 0-.457.16-.457.454v1.273c-.465-1.254-1.598-1.871-2.871-1.871-1.84 0-3.52 1.254-3.52 3.883 0 2.652 1.68 3.914 3.54 3.914Zm.204-.918c-1.637 0-2.711-1.133-2.711-2.996 0-1.848 1.074-2.98 2.68-2.98 1.616 0 2.699 1.152 2.699 2.98 0 1.844-1.07 2.996-2.668 2.996m5.773.746h5.117c.293 0 .453-.16.453-.453 0-.285-.148-.445-.453-.445h-4.328l4.652-5.422a.762.762 0 0 0 .211-.555v-.172c0-.285-.16-.434-.453-.434h-5.117c-.305 0-.465.16-.465.446 0 .293.172.441.465.441h4.328l-4.664 5.434a.832.832 0 0 0-.2.566v.16c0 .282.161.434.454.434Zm9.234 2.418h.172c.25 0 .434-.11.535-.344l4.075-9.031c.132-.3-.012-.524-.356-.524h-.172c-.25 0-.422.122-.523.352l-2.621 5.945-2.61-5.945a.538.538 0 0 0-.523-.352h-.191c-.336 0-.477.223-.344.524l3.125 6.887-.903 1.953c-.132.312 0 .535.336.535Zm0 0"/>
            </clipPath>
            <clipPath id="cc8c6a33-0c9a-43cc-92b2-2572b1abb5e5">
                <path d="M17.082 18.156h12.434v7.867H17.082Zm0 0"/>
            </clipPath>
            <clipPath id="78116591-a889-4893-a962-7a15eb38ed3b">
                <path d="M25.629 18.207c-1.457 0-2.418.777-2.75 1.992-.375-1.363-1.035-1.972-2.399-1.972-1.234 0-2.101.78-2.355 1.77v-1.184c0-.293-.164-.454-.457-.454h-.121c-.293 0-.453.16-.453.453v6.575c0 .293.16.457.453.457h.121c.293 0 .457-.164.457-.457v-3.024c0-2.152.617-3.207 2.113-3.207 1.457 0 1.91.934 1.91 3.074v3.157c0 .293.165.457.457.457h.122c.293 0 .453-.164.453-.457V22.21c0-2.113.597-3.074 2.105-3.074 1.465 0 2.012.953 2.012 3.074v3.176c0 .293.16.457.453.457h.121c.285 0 .457-.164.457-.457v-3.235c0-2.68-.738-3.945-2.7-3.945Zm7.562 7.797c1.266 0 2.399-.625 2.852-1.86v1.223c0 .293.16.453.453.453h.125c.293 0 .453-.16.453-.453v-6.555c0-.292-.16-.453-.453-.453h-.125c-.293 0-.453.16-.453.453v1.266c-.465-1.242-1.598-1.86-2.871-1.86-1.84 0-3.52 1.255-3.52 3.884 0 2.648 1.68 3.902 3.54 3.902Zm.204-.91c-1.641 0-2.711-1.133-2.711-3.004 0-1.84 1.07-2.973 2.68-2.973 1.616 0 2.699 1.153 2.699 2.973 0 1.851-1.07 3.004-2.668 3.004m14.074-6.887c-1.457 0-2.414.777-2.75 1.992-.375-1.363-1.032-1.972-2.395-1.972-1.234 0-2.105.78-2.347 1.77v-1.184c0-.293-.172-.454-.454-.454h-.125c-.293 0-.453.16-.453.453v6.575c0 .293.16.457.453.457h.125c.282 0 .454-.164.454-.457v-3.024c0-2.152.617-3.207 2.101-3.207 1.457 0 1.914.934 1.914 3.074v3.157c0 .293.16.457.453.457h.121c.293 0 .457-.164.457-.457V22.21c0-2.113.606-3.074 2.102-3.074 1.477 0 2.012.953 2.012 3.074v3.176c0 .293.164.457.457.457h.12c.294 0 .454-.164.454-.457v-3.235c0-2.68-.727-3.945-2.7-3.945Zm7.566 7.797c1.262 0 2.395-.625 2.852-1.86v1.223c0 .293.16.453.453.453h.12c.294 0 .458-.16.458-.453v-6.555c0-.292-.164-.453-.457-.453h-.121c-.293 0-.453.16-.453.453v1.266c-.465-1.242-1.598-1.86-2.875-1.86-1.84 0-3.516 1.255-3.516 3.884 0 2.648 1.676 3.902 3.54 3.902Zm.2-.91c-1.637 0-2.708-1.133-2.708-3.004 0-1.84 1.07-2.973 2.68-2.973 1.617 0 2.7 1.153 2.7 2.973 0 1.851-1.075 3.004-2.673 3.004"/>
            </clipPath>
            <clipPath id="37767bf1-fe77-4359-85c1-938b2517c624">
                <path d="M28.207 2.25h1.309v26.781h-1.309Zm0 0"/>
            </clipPath>
            <clipPath id="f201e301-38a6-4e28-9fd4-ea70547f78da">
                <path d="M28.277 22.77c0-3.946 0-4.887.18-5.825 0-.933 0-1.87.387-2.812.375-1.317.93-3.945 1.496-4.512.375-.191.75.184 1.133-.191.375-.375.746-1.688 1.12-2.63.376-.94.567-2.437 1.317-3.195.942-.75 2.63-1.312 3.762-1.312 1.121 0 1.879.371 2.82.746.75.566 1.496 1.133 2.246 1.883.938.937 1.88 3.012 2.07 3.566.184 0 .184.196.184.196.192.18.758.37 1.133.566.75.371 2.063.938 2.82 1.688 1.125.566 2.063 1.496 2.813 2.437.758.758 1.312 1.504 1.879 2.254.375.383.566.941 1.133 1.316.75.383 2.257 0 3.003.383.942.555 1.688 1.496 2.254 2.438.567.746 1.125 1.687 1.317 2.629.375 1.132.566 2.628.566 3.94 0 1.134-.191 2.642-.941 3.571-.758.942-2.63 2.258-4.137 2.258-1.687.191-4.133-1.691-5.45-2.437-.94-.75-1.687-2.063-2.253-1.883-.375 0 0 1.687-.75 2.449-.746.746-3.387 1.312-4.883 1.496-1.133.191-2.629 0-3.004 0-.191 0-.383 2.07-.758 3.012-.183.93 0 2.062-.566 2.812-.75 1.133-2.629 2.446-3.945 2.446-.938 0-2.063-.938-2.809-1.88-.566-.75-.941-1.882-1.508-2.82-.375-.941-.75-1.87-1.133-2.812-.375-1.133-.375-2.45-.75-3.387a62.976 62.976 0 0 0-.566-3.004c-.18-1.133-.18-3.386-.18-3.386"/>
            </clipPath>
            <clipPath id="a2f33ed1-9936-466f-a9f8-d391705c79b4">
                <path d="M18.871 8.855h10.645v6.086H18.87Zm0 0"/>
            </clipPath>
            <clipPath id="f1218136-98be-4d2b-aa5f-fc9b1576ad88">
                <path d="M19.066 14.879c2.82-4.316 10.899-4.508 10.899-4.133.191.566-9.395 4.883-10.527 3.941-.747-.554-.555-2.437 0-3.374 1.132-1.317 6.585-2.825 7.523-2.258.375.375.184 1.883.184 1.883l-.375-1.883s.75 1.316.566 1.883c-.566.94-7.703 1.687-7.703 1.687s11.457-2.438 11.457-2.063c.191.376-12.024 4.317-12.024 4.317"/>
            </clipPath>
            <clipPath id="562afc1f-b653-4cbc-b47e-3c14f2a7891d">
                <path d="M23.879 9h5.637v5.578h-5.637Zm0 0"/>
            </clipPath>
            <clipPath id="860ae07f-7c46-4ecf-8d1c-f0efa97359e6">
                <path d="M32.027 9.055c-1.312 4.703-3.004 5.633-4.125 5.453-1.507-.375-3.953-4.887-3.953-4.887"/>
            </clipPath>
            <clipPath id="72db4153-a158-4f5c-a996-56fc0cc1bd80">
                <path d="M27.488 10.523h2.028V18h-2.028Zm0 0"/>
            </clipPath>
            <clipPath id="a2d6af33-7f03-4ec1-ad04-bfcaf4bde439">
                <path d="M27.52 17.512c2.07-7.325 3.195-6.575 3.195-6.575l-1.692-.374s1.508-.192 1.692.374c.758.942-.375 6.2-1.496 6.946-.375.375-1.7-.371-1.7-.371"/>
            </clipPath>
            <clipPath id="4fced0c1-c122-48e5-b06d-da7d2df3f6bc">
                <path d="M18.82 9.563h10.696v8.855H18.82Zm0 0"/>
            </clipPath>
            <clipPath id="b394a281-cc7e-4f07-92f7-eaf4c3f05e75">
                <path d="M21.695 10.746c.758 6.2 6.762 1.133 8.078 1.504.758.184 1.133 1.316 1.133 1.316l-1.133-1.316s.942 1.125.758 1.691c-.566 1.504-7.703 5.075-9.586 4.317-1.508-.555-2.254-4.317-2.062-5.824 0-1.121.75-2.813 1.312-2.813.567-.191 1.5 1.125 1.5 1.125"/>
            </clipPath>
            <clipPath id="47c7dc1b-20dd-4b2b-8ef9-daaf36d9c86e">
                <path d="M22.23 12.027h5.31v3.633h-5.31Zm0 0"/>
            </clipPath>
            <clipPath id="656df2f4-ffa0-43af-a47a-1b0e187d6289">
                <path d="M26.203 12.059c1.133 1.132-.375.191-.375.191s1.692.375 1.692.75c0 .758-1.872 2.629-2.63 2.629-.94-.184-2.628-3.004-2.628-3.004"/>
            </clipPath>
            <clipPath id="c4591fa7-05cc-42c6-a72c-c20b6875ccef">
                <path d="M19 14.648h.875v.7H19Zm0 0"/>
            </clipPath>
            <clipPath id="85865f30-8ef6-40d9-94dd-1f7accbcaf8f">
                <path d="M19.824 15.074c-1.699.746-.191-.386-.191-.386"/>
            </clipPath>
            <clipPath id="874374e5-466c-4991-aa78-2312afd82cbf">
                <path d="M18.598 12.395h.902v.707h-.902Zm0 0"/>
            </clipPath>
            <clipPath id="d71ffc0c-8c8b-45a2-948c-85918f85f586">
                <path d="M19.438 12.816c-1.688.75-.18-.382-.18-.382"/>
            </clipPath>
            <clipPath id="2da42109-7176-4b6e-a024-4adc57a8b214">
                <path d="M18.316 12.2h1.547v3.245h-1.547Zm0 0"/>
            </clipPath>
            <clipPath id="8b7e125c-a536-429b-aff3-0926f60f3047">
                <path d="M19.824 15.445c-3.015-1.687-.387-3.195-.387-3.195"/>
            </clipPath>
            <clipPath id="b415e8fe-34b1-4388-b944-a7577571d9b0">
                <path d="M17.559 12.242h2.457v1.293h-2.457Zm0 0"/>
            </clipPath>
            <clipPath id="1f44cc53-e8f9-42a6-b112-7cc10873ddd8">
                <path d="M20.004 12.25c-1.496 2.629-2.438.375-2.438.375"/>
            </clipPath>
            <clipPath id="22edbab0-8b1d-41f0-af10-bd276c4b96e1">
                <path d="M18.469 13.719h3.672v3.234h-3.672Zm0 0"/>
            </clipPath>
            <clipPath id="83c8273c-ee0d-4b0b-a65e-62a3b31efcac">
                <path d="M22.078 15.074c-3.195 1.871-3.57.555-3.57.555s.558 1.316.93 1.316c.386 0 .757-3.004 1.324-3.187.558 0 1.316 1.316 1.316 1.316"/>
            </clipPath>
            <clipPath id="78027c80-3089-4d6b-92d5-8b86ade2cb0a">
                <path d="M18.871 15.05h1.7v.973h-1.7Zm0 0"/>
            </clipPath>
            <clipPath id="a14f6c99-5a95-4a27-94a7-d55d666ad324">
                <path d="M18.883 16.012c1.12-2.07 1.687 0 1.687 0"/>
            </clipPath>
            <clipPath id="b562777f-5e1a-4419-bb00-537869bb8557">
                <path d="M18.75 14.266h2.895v1.992H18.75Zm0 0"/>
            </clipPath>
            <clipPath id="35a7c6ba-20ac-48bd-9807-e4937c7feb01">
                <path d="M18.883 14.313c5.633-.372.941 2.257.183 1.882-.558-.183-.183-1.883-.183-1.883"/>
            </clipPath>
            <clipPath id="f5ecc497-b1a8-460d-b582-b39dd431f3f0">
                <path d="M23.441 11.262h6.075v3.215H23.44Zm0 0"/>
            </clipPath>
            <clipPath id="d9ed5f7f-93e5-47d8-a9ca-cb2927373371">
                <path d="M33.727 13.191c-10.153 2.438-10.528-.941-10.153-1.507.375-.371 1.883 0 1.883 0l-1.691-.371 1.691.19s-1.508-.386-1.691-.19c-.371.37 0 2.628.75 3 1.312.761 6.957-3 8.27-2.434.558.18.94 1.312.94 1.312"/>
            </clipPath>
            <clipPath id="43f212b9-7e9e-4431-9454-11cbfeaf5a21">
                <path d="M25.21 16.64h3.704v.919h-3.703Zm0 0"/>
            </clipPath>
            <clipPath id="8ff2ed9b-3823-459b-b00b-d408ba91e4aa">
                <path d="M25.262 17.512c8.082-1.883 0 0 0 0"/>
            </clipPath>
            <clipPath id="9fdb5ab9-efbd-4359-8cb6-896a062759c7">
                <path d="M18.133 13.89h2.844V16h-2.844Zm0 0"/>
            </clipPath>
            <clipPath id="184de8bb-1738-43a3-9317-5223592d0078">
                <path d="M18.316 13.941c5.45 1.133.75 2.446 0 1.88-.375-.376 0-1.88 0-1.88"/>
            </clipPath>
            <clipPath id="470ccbfe-73e8-4d8a-9a4f-7a314b92b66f">
                <path d="M21.473 13.324h6.754v2.153h-6.754Zm0 0"/>
            </clipPath>
            <clipPath id="38f74303-43b0-4ae9-9081-337ffbe3bbea">
                <path d="M21.695 13.375c13.903 0 1.325 2.82 0 1.879-.375-.375 0-1.879 0-1.879"/>
            </clipPath>
            <clipPath id="6043775a-02ff-4ab1-8166-e86b872c04c2">
                <path d="M24.523 12.727h4.993v2.73h-4.993Zm0 0"/>
            </clipPath>
            <clipPath id="9041f462-f215-427a-8365-785df05dbfa9">
                <path d="M30.715 15.445c-6.574-.937-6.383-2.07-6.008-2.445.941-.566 5.824-.184 6.383.758.383.375-.375 1.687-.375 1.687"/>
            </clipPath>
            <clipPath id="631fd222-65bb-4085-bea3-556b117c8af8">
                <path d="M24.445 13.453h5.07v4.652h-5.07Zm0 0"/>
            </clipPath>
            <clipPath id="673b321f-60e2-487a-8c1a-7ab1e39704fc">
                <path d="M32.219 18.074c-8.27-3.387-7.328-4.508-7.328-4.508l-.375 1.88c.191 0 0-1.505.566-1.88 1.121-.375 6.945 1.688 7.512 2.82.375.56-.375 1.688-.375 1.688"/>
            </clipPath>
            <clipPath id="cf64acb4-7d06-411b-b026-6e9c1903372d">
                <path d="M22.898 8.398h6.618v9.95h-6.618Zm0 0"/>
            </clipPath>
            <clipPath id="6ec64141-237b-4bc4-bc5e-d287e061fe46">
                <path d="M27.902 15.074c4.692-2.449 1.496 1.871-.191 2.438-1.316.37-3.57 0-4.316-.942-.762-.941-.567-3.379.18-4.136.757-.93 5.269-1.121 5.644-.375.554.757-3.957 6.39-4.512 6.199-.566-.184-.941-3.75 0-5.067 1.496-2.254 9.77-5.257 11.273-4.703.56.196.75 1.7.75 1.7l-.566-1.7s.941 1.133.566 1.7c-.566 1.316-8.273 2.246-10.14 3.945-.762.746-1.328 2.812-1.328 2.812s2.449-3.754 2.074-4.129c-.191-.191-1.508.184-1.879.559-.375.383-.75 1.7-.375 2.07.375.567 2.063.567 3.004.184 1.504-.375 4.508-3.195 4.508-3.195-.18 0-6.57 5.449-7.512 5.078-.75-.375-.566-2.825-.191-3.57.566-.567 3.011-1.126 3.386-.75.18.374-.375 1.882-.375 1.882"/>
            </clipPath>
            <clipPath id="840883a0-00ad-4b23-8615-6821b4ba5518">
                <path d="M19.117 9.926h10.399v6.41H19.117Zm0 0"/>
            </clipPath>
            <clipPath id="c2e50541-eb01-4bd5-b641-3b99fd837761">
                <path d="M21.512 16.195c-3.387.375-2.446-1.12-1.508-2.062 1.691-1.508 7.707-4.703 8.84-4.137.554.191.554 1.688.554 1.688s-.746-1.688-.554-1.688c0 0 1.12.941.93 1.508-.376 1.312-10.141 3.75-10.141 3.75s1.879-.941 2.254-.746c.191.18-.375 1.687-.375 1.687"/>
            </clipPath>
            <clipPath id="5b4afc0d-7211-4830-89de-3768a79d5b05">
                <path d="M16.926 14.324h1.246v1.516h-1.246Zm0 0"/>
            </clipPath>
            <clipPath id="2a0dc190-e5f6-43b9-a4b7-c93ca93562a8">
                <path d="M17.625 15.777c-.094-.687-.227-.687-.277-.644-.07.058-.094.375-.059.398.035.02.184-.136.254-.226.062-.082.082-.207.164-.274.078-.054.29-.11.34-.078.031.016.043.055.031.098-.035.105-.402.344-.547.441a1.124 1.124 0 0 1-.25.133c-.07.023-.16.05-.203.04a.088.088 0 0 1-.047-.063c-.004-.059.035-.165.094-.266.098-.188.488-.703.57-.691.024 0 .035.039.035.074-.007.105-.285.39-.375.574-.074.156-.085.406-.136.465-.024.023-.047.031-.067.023a.066.066 0 0 1-.043-.058c0-.121.442-.73.575-.825.046-.035.097-.046.113-.035.02.012.031.047.02.09-.036.098-.356.305-.493.465-.117.133-.21.371-.293.406a.09.09 0 0 1-.093-.023c-.02-.035-.004-.125.03-.211.083-.207.477-.754.66-.953a1 1 0 0 1 .274-.219c.07-.047.168-.098.211-.086.028.012.063.078.051.09-.004.012-.086.012-.094 0-.011-.016.043-.09.055-.09.016.004.047.066.035.102-.023.058-.223.093-.332.18a2.524 2.524 0 0 0-.379.425c-.133.18-.316.445-.37.594-.028.074-.013.148-.036.18-.016.015-.059.023-.074.015-.02-.004-.035-.027-.035-.058.003-.075.191-.297.308-.434a3.88 3.88 0 0 1 .41-.402c.047-.04.094-.086.125-.082.02.007.043.082.04.101-.012.012-.083-.023-.094-.012-.016.016.023.067.011.114-.027.129-.285.46-.386.582-.059.07-.106.133-.153.14-.03.004-.062 0-.082-.03-.035-.063.063-.337.145-.513.094-.195.355-.601.418-.597.031.008.054.078.043.129-.024.132-.39.453-.489.62-.066.106-.066.259-.109.266-.023.012-.09-.027-.09-.05.008-.047.282-.094.407-.18.156-.106.332-.344.449-.414.062-.04.133-.074.16-.055.023.012.043.074.031.098-.031.047-.234.011-.32.074-.106.07-.14.281-.227.371a.602.602 0 0 1-.218.152.145.145 0 0 1-.094-.015.155.155 0 0 1-.047-.102 1.24 1.24 0 0 1 .082-.465.12.12 0 0 1 .07-.074.267.267 0 0 1 .149-.004c.07.012.175.04.222.114.082.12.086.574.047.675-.02.036-.047.059-.07.059-.02-.008-.047-.059-.047-.059"/>
            </clipPath>
            <clipPath id="244cc810-66cf-4867-8918-0596c281cdee">
                <path d="M20.633 15.43h2.5v.511h-2.5Zm0 0"/>
            </clipPath>
            <clipPath id="7fa685e0-f9fc-4a16-ad91-a118cf3754ba">
                <path d="M21.41 15.938c-.707-.028-.762-.051-.773-.086-.012-.024 0-.059.031-.082.11-.075.793.07 1.187.02.41-.06 1.067-.38 1.215-.356.032.004.055.015.059.035.008.015-.016.07-.035.074-.024.008-.07-.016-.074-.04-.008-.019.027-.07.039-.07.02 0 .07.063.054.098-.047.117-.867.317-1.285.371-.39.047-1.015.032-1.148-.023-.032-.012-.047-.024-.047-.04-.008-.015.012-.062.035-.07.027-.011.062.043.125.06.129.023.547-.052.629-.005.035.016.047.04.047.063 0 .015-.059.05-.059.05"/>
            </clipPath>
            <clipPath id="7b9edb0f-a71b-4233-9e0f-b6b74d1c321f">
                <path d="M28.54 25.938h.976v1.515h-.977Zm0 0"/>
            </clipPath>
            <clipPath id="bb0c4e5c-7db4-4f2e-9f59-6888572e21db">
                <path d="M29.238 27.39c-.093-.687-.226-.687-.281-.644-.066.055-.09.375-.055.399.032.02.184-.141.254-.227.063-.082.082-.207.164-.273.078-.06.29-.11.34-.079.031.016.043.055.031.098-.035.106-.402.34-.546.441a1.124 1.124 0 0 1-.25.133c-.07.024-.165.051-.204.04a.097.097 0 0 1-.046-.063c-.004-.059.035-.164.093-.266.098-.187.489-.703.57-.691.024 0 .036.039.036.074-.008.105-.285.39-.375.574-.074.157-.086.407-.137.465-.023.024-.047.031-.066.024-.016-.004-.047-.028-.047-.06 0-.12.441-.73.578-.823.047-.035.098-.047.113-.035.02.011.031.046.02.09-.035.097-.356.304-.496.46-.114.137-.207.375-.29.407a.096.096 0 0 1-.093-.02c-.024-.035-.004-.125.031-.21.082-.208.477-.755.66-.954a1 1 0 0 1 .274-.219c.07-.047.168-.101.21-.09.028.012.063.082.051.094-.004.012-.086.012-.093 0-.012-.015.043-.094.054-.094.016.008.047.07.035.106-.023.058-.222.094-.332.18-.128.105-.261.27-.378.425-.133.18-.32.446-.372.59-.027.078-.011.153-.035.184-.015.015-.058.02-.074.015-.02-.007-.035-.027-.035-.058.004-.074.191-.297.308-.434a3.69 3.69 0 0 1 .41-.402c.047-.04.094-.086.122-.082.023.008.047.082.043.101-.012.008-.082-.023-.094-.011-.016.015.023.066.012.113-.028.129-.285.46-.391.582-.055.07-.102.133-.148.14-.032.005-.067 0-.082-.03-.036-.063.062-.337.144-.512.094-.196.356-.602.418-.598.031.008.055.078.043.129-.023.133-.39.453-.488.621-.067.105-.067.254-.114.266-.02.011-.085-.028-.085-.051.007-.047.28-.094.406-.18.156-.105.332-.344.449-.414.063-.039.133-.074.16-.055.024.008.043.075.031.098-.03.047-.234.012-.32.074-.105.07-.14.278-.226.371a.602.602 0 0 1-.22.153c-.034.004-.07 0-.093-.02a.145.145 0 0 1-.047-.097 1.24 1.24 0 0 1 .082-.465.126.126 0 0 1 .067-.075c.035-.02.101-.02.152-.007.07.011.176.043.223.117.078.12.086.574.046.676-.02.035-.046.054-.07.054-.02-.004-.047-.054-.047-.054"/>
            </clipPath>
            <clipPath id="e5e99451-a8e2-40d9-91b1-65a5407425f8">
                <path d="M18.172 11.66H23v6.598h-4.828Zm0 0"/>
            </clipPath>
            <clipPath id="9606cd8d-2743-4a99-871d-4668cbafd156">
                <path d="M19.645 16.84c-1.598 0-.942-5.156-.727-5.156.148-.07.582 2.398.508 3.484 0 1.09-.797 2.977-.797 3.05 0 0 .144-.87.508-1.234.582-.652 3.773-1.668 3.847-1.523.07.144-3.629 3.121-4.355 2.758-.871-.508-.145-6.461.074-6.535.215 0 .652 1.597.797 2.468.074.801.145 2.106-.145 2.543-.144.215-.652.36-.652.29-.074-.075.434-.872.578-.801.145 0 .364.656.364.656"/>
            </clipPath>
            <clipPath id="77f59ad1-def2-49ec-9270-a09225a468cf">
                <path d="M23.668 11.46h3.785v6.5h-3.785Zm0 0"/>
            </clipPath>
            <clipPath id="79eba689-46f0-4b0f-bd20-b7b8b0a31ce0">
                <path d="M23.926 16.695c2.976-.437 1.09-2.832 1.02-3.777-.075-.578.288-1.45.359-1.45.293 0 .293 5.88.511 5.88.215 0 .29-4.645.868-5.153.148-.148.656-.074.656 0 0 0-.727 0-.656.07 0 0 .511-.218.656 0 .363.364-.293 3.196-.656 4.282-.215.582-.434 1.308-.723 1.379-.293.074-.8-.145-1.016-.578-.437-.871 0-5.809.36-5.88.437-.073 2.18 4.645 1.89 5.587-.074.437-.511.656-.945.8-.652.145-2.324-.144-2.54-.437-.073-.215.216-.723.216-.723"/>
            </clipPath>
        </defs>
        <g clip-path="url(#befdf9a8-aaea-4590-8f75-d990a4442dbe)">
            <path d="M.484 0h29.032v29.031H.484Zm0 0" fill="#ffffff" data-color="1"/>
            <path d="M.484 0h29.032v29.031H.484Zm0 0" fill="#ffffff" data-color="1"/>
            <path fill="#ffffff" d="M33-3v36H-3V-3h36z" data-color="1"/>
            <path fill="#ff6392" d="M33-3v36H-3V-3h36z" data-color="2"/>
        </g>
        <g clip-path="url(#9d4af988-1099-4ae5-bdb2-597d9caa2cdb)">
            <g clip-path="url(#fe438ba9-3ae2-4540-b9a1-7cc5ee3ba313)">
                <path d="M-1.434-.71H60.25v29.628H-1.434Zm0 0" fill="#ffffff" data-color="1"/>
            </g>
        </g>
        <g clip-path="url(#c4285d65-279e-4a04-a81e-5c4ff1622dd2)">
            <g clip-path="url(#57b08884-b860-4699-ab14-9613768092b0)">
                <path d="M-1.434-.71H60.25v29.628H-1.434Zm0 0" fill="#ffffff" data-color="1"/>
            </g>
        </g>
        <g clip-path="url(#01b2d0a9-fde0-4aee-9b54-7c4e77bb002b)">
            <g clip-path="url(#d34ad38a-3a46-4727-a8aa-c58d1d88dc64)">
                <path d="M-1.434-.71H60.25v29.628H-1.434Zm0 0" fill="#ffffff" data-color="1"/>
            </g>
        </g>
        <g clip-path="url(#7857e889-4434-4fc1-a90b-66a4df666e66)">
            <g clip-path="url(#af86313d-3adc-44ab-8618-e9f8cd7dca36)">
                <path d="M-1.434-.71H60.25v29.628H-1.434Zm0 0" fill="#ffffff" data-color="1"/>
            </g>
        </g>
        <g clip-path="url(#cc8c6a33-0c9a-43cc-92b2-2572b1abb5e5)">
            <g clip-path="url(#78116591-a889-4893-a962-7a15eb38ed3b)">
                <path d="M-1.434-.71H60.25v29.628H-1.434Zm0 0" fill="#ffffff" data-color="1"/>
            </g>
        </g>
        <g clip-path="url(#37767bf1-fe77-4359-85c1-938b2517c624)">
            <g clip-path="url(#f201e301-38a6-4e28-9fd4-ea70547f78da)">
                <path d="M20.762-5.223h48.855v53.047H20.762Zm0 0" fill="#ff6392" data-color="2"/>
            </g>
        </g>
        <g clip-path="url(#a2f33ed1-9936-466f-a9f8-d391705c79b4)">
            <g clip-path="url(#f1218136-98be-4d2b-aa5f-fc9b1576ad88)">
                <path d="M11.55 1.543h27.212v21.043H11.55Zm0 0" fill="#ff6392" data-color="2"/>
            </g>
        </g>
        <g clip-path="url(#562afc1f-b653-4cbc-b47e-3c14f2a7891d)">
            <g clip-path="url(#860ae07f-7c46-4ecf-8d1c-f0efa97359e6)">
                <path d="M16.434 1.543h23.28V22.02h-23.28Zm0 0" fill="#ff6392" data-color="2"/>
            </g>
        </g>
        <g clip-path="url(#72db4153-a158-4f5c-a996-56fc0cc1bd80)">
            <g clip-path="url(#a2d6af33-7f03-4ec1-ad04-bfcaf4bde439)">
                <path d="M20.004 3.04h18.414v22.519H20.004Zm0 0" fill="#ff6392" data-color="2"/>
            </g>
        </g>
        <g clip-path="url(#4fced0c1-c122-48e5-b06d-da7d2df3f6bc)">
            <g clip-path="url(#b394a281-cc7e-4f07-92f7-eaf4c3f05e75)">
                <path d="M11.371 2.11h27.211v23.855h-27.21Zm0 0" fill="#ff6392" data-color="2"/>
            </g>
        </g>
        <g clip-path="url(#47c7dc1b-20dd-4b2b-8ef9-daaf36d9c86e)">
            <g clip-path="url(#656df2f4-ffa0-43af-a47a-1b0e187d6289)">
                <path d="M14.746 4.547h20.488v18.605H14.746Zm0 0" fill="#ff6392" data-color="2"/>
            </g>
        </g>
        <g clip-path="url(#c4591fa7-05cc-42c6-a72c-c20b6875ccef)">
            <g clip-path="url(#85865f30-8ef6-40d9-94dd-1f7accbcaf8f)">
                <path d="M10.61 7.176h16.93v16.351H10.61Zm0 0" fill="#ff6392" data-color="2"/>
            </g>
        </g>
        <g clip-path="url(#874374e5-466c-4991-aa78-2312afd82cbf)">
            <g clip-path="url(#d71ffc0c-8c8b-45a2-948c-85918f85f586)">
                <path d="M10.238 4.922h16.918v16.351H10.238Zm0 0" fill="#ff6392" data-color="2"/>
            </g>
        </g>
        <g clip-path="url(#2da42109-7176-4b6e-a024-4adc57a8b214)">
            <g clip-path="url(#8b7e125c-a536-429b-aff3-0926f60f3047)">
                <path d="M9.297 4.738h18.039v18.383H9.296Zm0 0" fill="#ff6392" data-color="2"/>
            </g>
        </g>
        <g clip-path="url(#b415e8fe-34b1-4388-b944-a7577571d9b0)">
            <g clip-path="url(#1f44cc53-e8f9-42a6-b112-7cc10873ddd8)">
                <path d="M10.043 4.738H27.52v17.676H10.043Zm0 0" fill="#ff6392" data-color="2"/>
            </g>
        </g>
        <g clip-path="url(#22edbab0-8b1d-41f0-af10-bd276c4b96e1)">
            <g clip-path="url(#83c8273c-ee0d-4b0b-a65e-62a3b31efcac)">
                <path d="M10.984 6.234h18.778v18.414H10.984Zm0 0" fill="#ff6392" data-color="2"/>
            </g>
        </g>
        <g clip-path="url(#78027c80-3089-4d6b-92d5-8b86ade2cb0a)">
            <g clip-path="url(#a14f6c99-5a95-4a27-94a7-d55d666ad324)">
                <path d="M11.371 6.426h16.715v17.11H11.37Zm0 0" fill="#ff6392" data-color="2"/>
            </g>
        </g>
        <g clip-path="url(#b562777f-5e1a-4419-bb00-537869bb8557)">
            <g clip-path="url(#35a7c6ba-20ac-48bd-9807-e4937c7feb01)">
                <path d="M11.371 6.05H32.06v17.657H11.37Zm0 0" fill="#ff6392" data-color="2"/>
            </g>
        </g>
        <g clip-path="url(#f5ecc497-b1a8-460d-b582-b39dd431f3f0)">
            <g clip-path="url(#d9ed5f7f-93e5-47d8-a9ca-cb2927373371)">
                <path d="M16.063 3.797H41.27v20.105H16.062Zm0 0" fill="#ff6392" data-color="2"/>
            </g>
        </g>
        <g clip-path="url(#43f212b9-7e9e-4431-9454-11cbfeaf5a21)">
            <g clip-path="url(#8ff2ed9b-3823-459b-b00b-d408ba91e4aa)">
                <path d="M17.75 8.117h23.125v16.906H17.75Zm0 0" fill="#ff6392" data-color="2"/>
            </g>
        </g>
        <g clip-path="url(#9fdb5ab9-efbd-4359-8cb6-896a062759c7)">
            <g clip-path="url(#184de8bb-1738-43a3-9317-5223592d0078)">
                <path d="M10.805 6.426H31.28v16.91H10.805Zm0 0" fill="#ff6392" data-color="2"/>
            </g>
        </g>
        <g clip-path="url(#470ccbfe-73e8-4d8a-9a4f-7a314b92b66f)">
            <g clip-path="url(#38f74303-43b0-4ae9-9081-337ffbe3bbea)">
                <path d="M14.18 5.488h29.105V22.77H14.18Zm0 0" fill="#ff6392" data-color="2"/>
            </g>
        </g>
        <g clip-path="url(#6043775a-02ff-4ab1-8166-e86b872c04c2)">
            <g clip-path="url(#9041f462-f215-427a-8365-785df05dbfa9)">
                <path d="M16.809 5.488h21.78v17.473H16.81Zm0 0" fill="#ff6392" data-color="2"/>
            </g>
        </g>
        <g clip-path="url(#631fd222-65bb-4085-bea3-556b117c8af8)">
            <g clip-path="url(#673b321f-60e2-487a-8c1a-7ab1e39704fc)">
                <path d="M16.809 6.05H40.32v19.54H16.81Zm0 0" fill="#ff6392" data-color="2"/>
            </g>
        </g>
        <g clip-path="url(#cf64acb4-7d06-411b-b026-6e9c1903372d)">
            <g clip-path="url(#6ec64141-237b-4bc4-bc5e-d287e061fe46)">
                <path d="M15.871.977h28.606v24.988H15.87Zm0 0" fill="#ff6392" data-color="2"/>
            </g>
        </g>
        <g clip-path="url(#840883a0-00ad-4b23-8615-6821b4ba5518)">
            <g clip-path="url(#c2e50541-eb01-4bd5-b641-3b99fd837761)">
                <path d="M10.805 2.484H37.48v22.164H10.805Zm0 0" fill="#ff6392" data-color="2"/>
            </g>
        </g>
        <g clip-path="url(#5b4afc0d-7211-4830-89de-3768a79d5b05)">
            <g clip-path="url(#2a0dc190-e5f6-43b9-a4b7-c93ca93562a8)">
                <path d="M16.703 14.098h1.695v1.968h-1.695Zm0 0" fill="#ff6392" data-color="2"/>
            </g>
        </g>
        <g clip-path="url(#244cc810-66cf-4867-8918-0596c281cdee)">
            <g clip-path="url(#7fa685e0-f9fc-4a16-ad91-a118cf3754ba)">
                <path d="M20.398 15.203h2.965v.969h-2.965Zm0 0" fill="#ff6392" data-color="2"/>
            </g>
        </g>
        <g clip-path="url(#7b9edb0f-a71b-4233-9e0f-b6b74d1c321f)">
            <g clip-path="url(#bb0c4e5c-7db4-4f2e-9f59-6888572e21db)">
                <path d="M28.313 25.71h1.695v1.97h-1.695Zm0 0" fill="#ff6392" data-color="2"/>
            </g>
        </g>
        <g clip-path="url(#e5e99451-a8e2-40d9-91b1-65a5407425f8)">
            <g clip-path="url(#9606cd8d-2743-4a99-871d-4668cbafd156)">
                <path d="M15.652 8.781h10.235v12.395H15.652Zm0 0" fill="#ff6392" data-color="2"/>
            </g>
        </g>
        <g clip-path="url(#77f59ad1-def2-49ec-9270-a09225a468cf)">
            <g clip-path="url(#79eba689-46f0-4b0f-bd20-b7b8b0a31ce0)">
                <path d="M20.805 8.566h9.511v12.329h-9.511Zm0 0" fill="#ff6392" data-color="2"/>
            </g>
        </g>
    </g>
</svg>
